<svg width="51" height="44" viewBox="0 0 51 44" fill="none" xmlns="http://www.w3.org/2000/svg">
<path d="M35.3494 0.0232612C35.6126 -0.0596861 35.8932 0.0862096 35.9763 0.349433C36.0593 0.612608 35.9132 0.893178 35.6501 0.976386L26.1765 3.9676L15.365 8.8133L26.616 11.5135L26.6599 11.5242L43.7019 19.0428C43.954 19.1545 44.0681 19.4496 43.9568 19.702C43.8452 19.9542 43.55 20.068 43.2976 19.9569L35.9294 16.7059L40.4626 27.8113C40.5665 28.0668 40.4436 28.3584 40.1882 28.4627C39.9327 28.5668 39.6412 28.4437 39.5369 28.1883L34.613 16.1248L26.3406 12.4754L13.8835 9.48615C13.8796 9.48521 13.8757 9.48327 13.8718 9.48225L11.6443 10.4813L25.7117 17.0467L25.8738 17.1229L36.9665 40.2733C38.9723 39.8189 40.9731 38.8558 42.4997 38.9998C44.5292 39.1914 46.0223 40.6681 47.4997 40.4998C48.9772 40.3314 50.9997 38.9998 50.9997 38.9998V43.4998H0.499747V37.9998C1.12582 37.9182 1.88345 37.831 2.73217 37.7479L7.06518 31.2488L11.9372 21.4071L6.55736 11.2332C6.54842 11.2163 6.54269 11.1979 6.53588 11.1805L0.56713 11.9949C0.29362 12.0322 0.0420058 11.8407 0.00462968 11.5672C-0.0326021 11.2936 0.158797 11.042 0.432364 11.0047L11.3611 9.5135L25.7956 3.04377L25.822 3.03205L25.8494 3.02326L35.3494 0.0232612ZM26.9997 33.119V39.1014C27.5222 39.0369 28.0394 38.9958 28.4997 38.9998C30.4762 39.0174 32.3959 40.4232 34.9997 40.4998C35.3111 40.509 35.6261 40.4901 35.9431 40.4529L29.7976 27.6278L26.9997 33.119ZM10.614 26.3358L15.9578 31.242L15.99 31.4022L17.2986 37.949C17.3663 37.9662 17.4339 37.9819 17.4997 37.9998C18.9893 38.4061 21.0173 39.0149 23.2038 39.6942L20.5447 31.7166L15.1501 23.3797L12.7195 22.0828L10.614 26.3358ZM7.58568 11.0369L12.8708 21.0311L15.7351 22.5584L15.8494 22.6199L15.9197 22.7283L21.4538 31.2811L21.4744 31.3416L24.2292 39.6082C24.6871 39.5023 25.3186 39.3663 25.9997 39.2498V32.8797L26.0544 32.7733L29.2546 26.493L25.1257 17.8768L10.2878 10.9529C10.1742 10.8998 10.0909 10.8085 10.0437 10.702L7.58568 11.0369ZM8.04369 31.5272L10.2234 37.3397C12.3922 37.3271 14.5144 37.4287 16.2341 37.7254L15.0408 31.7567L10.1521 27.2684L8.04369 31.5272ZM4.01147 37.6317C5.58719 37.5 7.37006 37.3936 9.16088 37.3543L7.37377 32.5887L4.01147 37.6317Z" fill="black"/>
</svg>
