<svg width="51" height="46" viewBox="0 0 51 46" fill="none" xmlns="http://www.w3.org/2000/svg">
<path d="M11.7998 0.251679C11.9371 0.0121534 12.2429 -0.0710799 12.4824 0.0661322C12.7219 0.203445 12.8051 0.509226 12.668 0.748749L10.6553 4.25949L11.0273 5.64523L12.7207 8.21555L14.6787 10.6706L15.8809 9.34152C16.066 9.13675 16.383 9.12134 16.5879 9.30637C16.7925 9.49143 16.8078 9.80759 16.623 10.0124L15.2686 11.5114L15.8525 12.5446C16.757 12.4548 17.674 12.3863 18.5713 12.3396L18.5039 10.3493L17.5918 6.95578L15.1406 6.42258C14.871 6.36382 14.6993 6.0975 14.7578 5.82785C14.8166 5.55818 15.0838 5.38641 15.3535 5.44504L17.2998 5.86887L16.6318 3.38254L15.499 1.05832C15.3786 0.810247 15.4825 0.511231 15.7305 0.390351C15.9786 0.269627 16.2785 0.372721 16.3994 0.62082L17.2266 2.32101L18.3271 1.10422C18.5122 0.899393 18.8293 0.88315 19.0342 1.06809C19.2386 1.25316 19.255 1.56936 19.0703 1.77414L17.6553 3.33762L19.2881 9.41281L20.3994 8.53391C20.616 8.36266 20.9302 8.39949 21.1016 8.61594C21.2728 8.83245 21.2369 9.14675 21.0205 9.31809L19.5098 10.5114L19.5703 12.2956C21.1627 12.245 22.6506 12.2809 23.8428 12.4333L24.1631 12.1423L23.3828 9.23996L21.3594 7.22726C21.1639 7.03264 21.1631 6.71697 21.3574 6.52121C21.5521 6.32541 21.8686 6.32374 22.0645 6.51828L23.2354 7.68234L23.1445 6.38937L22.8467 3.36105C22.82 3.08658 23.0204 2.8423 23.2949 2.81516C23.5695 2.78824 23.8146 2.98884 23.8418 3.2634L24.0449 5.33566L26.2471 3.40598C26.4546 3.22428 26.7702 3.24555 26.9521 3.45285C27.1339 3.66049 27.1138 3.97694 26.9062 4.15891L24.1592 6.56613L24.3262 8.89719L25.1123 11.823L26.4053 8.61008C26.5083 8.35391 26.7995 8.22969 27.0557 8.33273C27.123 8.35985 27.1812 8.39989 27.2285 8.44894C27.2771 8.42683 27.3296 8.41052 27.3857 8.405C27.6603 8.37816 27.9045 8.57965 27.9316 8.85422L28.1738 11.3093L29.5352 10.9431C29.5571 10.9372 29.5797 10.9342 29.6016 10.9314L29.7041 9.18234L28.6729 6.25656C28.5811 5.99612 28.7181 5.70968 28.9785 5.61789C29.2388 5.52641 29.5244 5.66335 29.6162 5.92355L30.335 7.96164L32.1641 5.02609C32.3101 4.79177 32.6182 4.72001 32.8525 4.86594C33.0868 5.01193 33.1586 5.32007 33.0127 5.55441L30.7002 9.26633L30.4492 13.5788C30.7591 13.6596 31.0627 13.7498 31.3594 13.8493L31.4912 13.7693C31.7266 13.6249 32.0344 13.6989 32.1787 13.9343C32.2281 14.0149 32.2495 14.1039 32.25 14.1921C33.5754 14.7759 34.7067 15.6445 35.5 17.0339C35.5179 17.0652 35.5325 17.0971 35.5479 17.1277L36.2051 13.8581L33.9707 10.2126C33.8266 9.97722 33.9004 9.66939 34.1357 9.52512C34.3711 9.38114 34.679 9.45495 34.8232 9.69016L36.5664 12.5339L37.2295 10.2195L36.6484 4.64621C36.6201 4.37179 36.8193 4.12698 37.0938 4.09836C37.3683 4.06984 37.614 4.26907 37.6426 4.54367L38.082 8.76437L40.4844 4.90793C40.6304 4.67367 40.9395 4.60275 41.1738 4.74875C41.4079 4.89482 41.4798 5.20299 41.334 5.43723L39.9336 7.6843L43.04 6.70676C43.3033 6.6239 43.5849 6.76985 43.668 7.03293C43.7508 7.29613 43.6048 7.57771 43.3418 7.66086L39.1201 8.98898L38.1973 10.4704L37.2197 13.8825L36.5137 17.3962L38.3398 17.239C38.6146 17.2155 38.8568 17.4193 38.8809 17.6941C38.9044 17.969 38.6998 18.2123 38.4248 18.2361L36.2559 18.4226L34.832 22.4665L34.7871 22.5974L33.626 23.5593C34.0131 23.9464 34.3355 24.4027 34.5723 24.9421L35.8701 23.6882L39.3125 20.0261L41.5176 16.488L40.3174 14.1462C40.1916 13.9005 40.2886 13.5993 40.5342 13.4734C40.7799 13.3476 41.0811 13.4446 41.207 13.6902L42.1328 15.4997L43.7598 12.8884L44.9062 10.1169C45.0118 9.86183 45.3044 9.73993 45.5596 9.84543C45.8146 9.95101 45.9355 10.2436 45.8301 10.4987L44.9824 12.5476L46.6543 12.404C46.9291 12.3806 47.1715 12.5852 47.1953 12.8601C47.2189 13.135 47.0142 13.3773 46.7393 13.4011L44.498 13.5945L40.5635 19.9099L41.9844 20.0437C42.259 20.0696 42.461 20.313 42.4355 20.5876C42.4097 20.8625 42.1656 21.0646 41.8906 21.0388L39.9072 20.8523L36.583 24.3894L36.5752 24.3982L34.8535 26.0612C34.8224 27.1948 33.661 28.2578 31.9912 29.1794L31.542 30.3777L33.1836 30.7712C33.5386 30.4906 34.0523 30.4535 34.7031 30.5818C35.1378 30.6674 35.1596 30.8991 35.0352 31.2155L35.1973 31.2546L36.4561 28.4021L36.4873 28.3318L38.4668 26.0857L38.8066 24.6687C38.8711 24.4002 39.1416 24.2341 39.4102 24.2986C39.6785 24.3631 39.8437 24.6336 39.7793 24.9021L39.5566 25.8327L41.5645 25.8669L43.4678 22.8122L43.7705 19.5905C43.7963 19.3157 44.0397 19.1138 44.3145 19.1394C44.5894 19.1652 44.7914 19.4094 44.7656 19.6843L44.5957 21.4909L45.5908 20.364L47.8574 17.6667C48.035 17.4556 48.3512 17.4279 48.5625 17.6052C48.7737 17.7828 48.8014 18.0989 48.624 18.3103L47.0068 20.2331L50.0127 20.3484C50.2885 20.359 50.5046 20.592 50.4941 20.8679C50.4833 21.1435 50.2503 21.3588 49.9746 21.3484L46.1826 21.2029L44.3574 23.2761L42.1143 26.8767L41.8311 26.8708L39.1465 26.8259L37.6787 28.4919L38.7217 29.1423L42.3389 28.6413L43.8115 27.9734L46.0137 25.3542C46.1913 25.1435 46.5066 25.1157 46.7178 25.2927C46.929 25.4703 46.9567 25.7864 46.7793 25.9978L44.875 28.2624L46.083 29.0154C46.3174 29.1614 46.3892 29.4704 46.2432 29.7048C46.0971 29.939 45.788 30.01 45.5537 29.864L44.084 28.948L43.0371 29.4226L43.4795 32.0095C43.5259 32.2816 43.3424 32.5401 43.0703 32.5866C42.7984 32.6328 42.5407 32.4494 42.4941 32.1775L42.0674 29.6872L40.8672 29.8532C41.2624 30.2044 40.7298 31.4111 39.8271 32.7761L40.9482 33.4743C41.1826 33.6204 41.2544 33.9294 41.1084 34.1638C40.9623 34.3981 40.6533 34.469 40.4189 34.323L39.2549 33.5974C38.2317 34.9894 36.9487 36.4005 35.9443 37.1355C34.706 38.0415 32.9671 38.8005 31.5615 39.239C32.224 39.4641 32.9325 39.7028 33.6689 39.9538C34.1952 39.7921 34.6622 39.5828 34.9971 39.3015C36.6072 37.9486 36.5107 36.4367 37.4971 36.3015C38.4835 36.1663 38.6528 35.7738 39.4971 36.3015C40.3407 36.8293 37.3561 38.5048 35.5117 39.8542C35.2846 40.0204 35.0368 40.1801 34.7764 40.3327C36.7207 40.9963 38.7994 41.7066 40.7354 42.3698C40.7698 42.3386 40.8051 42.3079 40.8389 42.2751C41.2416 41.8837 41.4999 41.4639 41.5 41.0339C41.5 40.9069 41.4514 40.7448 41.3301 40.529C41.2086 40.313 41.0416 40.0897 40.8496 39.8337C40.6668 39.59 40.4585 39.3127 40.2988 39.029C40.1391 38.745 40.0001 38.4067 40 38.0339C40 37.5407 40.1516 37.0123 40.3525 36.5388C40.5559 36.0597 40.8258 35.5992 41.0996 35.2341C41.2652 35.0133 41.5789 34.9681 41.7998 35.1335C42.0205 35.2991 42.0658 35.6129 41.9004 35.8337C41.6744 36.1351 41.4439 36.5255 41.2725 36.9294C41.0987 37.339 41 37.7274 41 38.0339C41.0001 38.1609 41.0486 38.3231 41.1699 38.5388C41.2914 38.7548 41.4584 38.9781 41.6504 39.2341C41.8332 39.4779 42.0416 39.7551 42.2012 40.0388C42.3609 40.3228 42.5 40.6611 42.5 41.0339C42.4999 41.7219 42.164 42.2924 41.7822 42.7292C42.0532 42.8221 42.32 42.9138 42.582 43.0036C42.6683 42.9318 42.7553 42.8563 42.8389 42.7751C43.2416 42.3837 43.4999 41.9639 43.5 41.5339C43.5 41.4069 43.4514 41.2448 43.3301 41.029C43.2086 40.813 43.0416 40.5897 42.8496 40.3337C42.6668 40.09 42.4585 39.8127 42.2988 39.529C42.1391 39.245 42.0001 38.9067 42 38.5339C42 38.0407 42.1516 37.5123 42.3525 37.0388C42.5559 36.5597 42.8258 36.0992 43.0996 35.7341C43.2652 35.5133 43.5789 35.4681 43.7998 35.6335C44.0205 35.7991 44.0658 36.1129 43.9004 36.3337C43.6744 36.6351 43.4439 37.0255 43.2725 37.4294C43.0987 37.839 43 38.2274 43 38.5339C43.0001 38.6609 43.0486 38.8231 43.1699 39.0388C43.2914 39.2548 43.4584 39.4781 43.6504 39.7341C43.8332 39.9779 44.0416 40.2551 44.2012 40.5388C44.3609 40.8228 44.5 41.1611 44.5 41.5339C44.4999 42.2987 44.0857 42.9191 43.6533 43.3708C43.7503 43.4041 43.8464 43.4368 43.9414 43.4695C44.2014 43.297 44.5374 43.068 44.8389 42.7751C45.2416 42.3837 45.4999 41.9639 45.5 41.5339C45.5 41.4069 45.4514 41.2448 45.3301 41.029C45.2086 40.813 45.0416 40.5897 44.8496 40.3337C44.6668 40.09 44.4585 39.8127 44.2988 39.529C44.1391 39.245 44.0001 38.9067 44 38.5339C44 38.0407 44.1516 37.5123 44.3525 37.0388C44.5559 36.5597 44.8258 36.0992 45.0996 35.7341C45.2652 35.5133 45.5789 35.4681 45.7998 35.6335C46.0205 35.7991 46.0658 36.1129 45.9004 36.3337C45.6744 36.6351 45.4439 37.0255 45.2725 37.4294C45.0987 37.839 45 38.2274 45 38.5339C45.0001 38.6609 45.0486 38.8231 45.1699 39.0388C45.2914 39.2548 45.4584 39.4781 45.6504 39.7341C45.8332 39.9779 46.0416 40.2551 46.2012 40.5388C46.3609 40.8228 46.5 41.1611 46.5 41.5339C46.4999 42.3685 46.0082 43.0331 45.5361 43.4919C45.3947 43.6294 45.2451 43.7531 45.1016 43.8669C47.14 44.5665 48.5 45.0339 48.5 45.0339H0V35.5339C0 35.5339 5.3137 31.9893 7.60645 29.905C6.7408 29.5535 5.84625 29.0986 5.14648 28.5866C3.53911 27.4105 1.05441 24.1284 1.00098 22.9548C0.728684 22.9293 0.526332 22.69 0.548828 22.4167C0.571671 22.1417 0.813817 21.9371 1.08887 21.9597L2.44629 22.07C2.49856 22.062 2.5513 22.0559 2.60449 22.0505L0.601562 20.4294C0.387037 20.2557 0.353684 19.9409 0.527344 19.7263C0.701071 19.5117 1.01586 19.4785 1.23047 19.6521L4.41211 22.2282L7.35645 22.3757L6.11816 20.7868C3.67811 20.3109 1.21921 19.6775 1.5 18.0339C1.6945 16.8971 2.29996 16.2123 3.12793 15.7331L1.46582 12.4157C1.34233 12.169 1.44287 11.8686 1.68945 11.7448C1.93626 11.6212 2.23755 11.7208 2.36133 11.9675L4.03613 15.3103C4.98797 14.9446 6.09615 14.6958 7.18066 14.3337L4.8418 14.1208C4.56681 14.0957 4.36355 13.8519 4.38867 13.5769C4.41392 13.3022 4.657 13.1 4.93164 13.1247L7.17578 13.3298L4.21191 10.6023L1.44727 9.6218C1.18734 9.52941 1.05057 9.24317 1.14258 8.98312C1.235 8.72303 1.52206 8.58711 1.78223 8.67941L3.74609 9.3757L2.9873 6.55148C2.91582 6.28487 3.07421 6.0108 3.34082 5.93918C3.60721 5.86785 3.8813 6.02548 3.95312 6.29172L4.9209 9.89426L8.33301 13.0349L8.6377 11.9089C8.70969 11.6426 8.98455 11.4847 9.25098 11.5564C9.51729 11.6283 9.67499 11.9023 9.60352 12.1687L9.20508 13.6423C10.6045 13.2664 12.6127 12.9156 14.7705 12.6628L14.2383 11.7214L12.0469 8.97238L7.93164 8.3757C7.6586 8.33592 7.46931 8.0814 7.50879 7.80832C7.54848 7.53504 7.8029 7.3448 8.07617 7.38449L11.2822 7.85031L10.2051 6.21652L5.9082 3.4382C5.67645 3.28827 5.60996 2.97864 5.75977 2.7468C5.90968 2.51504 6.21932 2.4486 6.45117 2.59836L9.74512 4.72824L8.74219 0.991913C8.67071 0.725386 8.82828 0.45135 9.09473 0.379609C9.36141 0.307965 9.63636 0.466438 9.70801 0.733124L10.2871 2.88937L11.7998 0.251679ZM24.209 34.2058C25.6656 36.0718 26.9075 37.6698 28 38.0339C28.0617 38.0545 28.1254 38.0763 28.1914 38.0984C28.4777 37.9532 29.0596 37.8142 29.7686 37.6413C29.6204 37.6248 29.4804 37.5449 29.3965 37.4079L28.3203 35.653L24.209 34.2058ZM25.6455 33.6501L28.7334 34.737L30.1738 34.6941L30.8252 33.6472C30.9713 33.413 31.2804 33.342 31.5146 33.488C31.7486 33.6342 31.8198 33.9423 31.6738 34.1765L31.2715 34.823L33.1953 35.1667C33.467 35.2154 33.6472 35.4751 33.5986 35.7468C33.5499 36.0183 33.2911 36.1985 33.0195 36.1501L30.4219 35.6862L29.5312 35.7136L30.25 36.8855C30.3904 37.1146 30.3223 37.4105 30.1016 37.5593C31.4408 37.227 33.108 36.7619 34.1152 35.9157C34.4163 35.6627 34.6821 35.3326 34.9219 34.9558C34.7543 34.8676 34.5501 34.765 34.2959 34.6511C32.723 33.946 32.506 33.3762 32.6416 32.0202C32.6536 31.8999 32.672 31.7877 32.6934 31.6833L30.9238 31.2585L25.6455 33.6501ZM34.5752 32.1345C34.402 32.511 34.2868 32.9141 34.4316 33.2946C34.666 33.9093 35.0361 33.8841 35.4883 33.8835C35.565 33.715 35.6377 33.5424 35.709 33.3689L35.1475 32.2722L34.5752 32.1345ZM23.1436 32.0984C22.956 32.1315 22.7732 32.1618 22.5957 32.1892C22.9836 32.6543 23.3583 33.123 23.7197 33.5827L23.1436 32.0984ZM30.6787 29.8308C29.1801 30.5048 27.4574 31.0768 25.8232 31.5056L25.292 32.7126L30.4795 30.362L30.6787 29.8308ZM24.1426 31.905L24.3359 32.403L24.5986 31.8054C24.4449 31.8401 24.2928 31.8732 24.1426 31.905ZM36.04 31.823L36.1865 32.1101C36.5949 30.9757 36.944 29.9401 37.3574 29.4704L37.1377 29.3337L36.04 31.823ZM20.375 28.3142C20.0079 28.4335 19.5817 28.591 19.1279 28.7663C19.6423 29.1458 20.1375 29.5732 20.6143 30.032C20.9414 29.6904 21.2564 29.3377 21.4463 28.9821L20.375 28.3142ZM7.77246 28.2507C8.15401 28.4167 8.56278 28.5552 8.9668 28.6745C9.33009 28.3893 9.72574 28.1194 10.1514 27.8786L7.77246 28.2507ZM7.42578 23.3786C7.6591 23.5713 7.80602 23.897 7.85547 24.3913C7.96671 25.5036 7.78812 25.9712 6.49805 26.5495C6.28955 26.643 6.12181 26.7262 5.98438 26.7986C6.13752 27.0393 6.3037 27.2567 6.48633 27.4392L9.44531 26.9773L8.07227 23.4118L7.42578 23.3786ZM16.5 27.0339C16.4503 27.068 16.4035 27.1049 16.3564 27.1404L16.6416 27.2321L16.5371 27.0027C16.5242 27.0133 16.5128 27.0251 16.5 27.0339ZM8.81738 22.6228L8.8623 22.6814L8.88867 22.7497L10.4395 26.7751L12.3525 26.2614L11.0811 23.1736L11.0459 23.0905L11.043 23.0007L11.0312 22.6784C10.8658 22.456 10.6901 22.2387 10.5 22.0339C10.0933 21.5957 8.94961 21.3304 7.60742 21.071L8.81738 22.6228ZM17.1719 25.9841L17.4258 26.5417C17.5164 26.4519 17.6066 26.3628 17.6953 26.2741L17.2178 25.8874C17.2023 25.9201 17.1871 25.9524 17.1719 25.9841ZM4.48926 23.2321C4.79791 23.9933 5.10791 25.0141 5.51953 25.9187C5.89055 25.9192 6.19446 25.9414 6.38672 25.4372C6.70418 24.6036 5.5006 23.6394 5.93066 23.3044L4.48926 23.2321ZM18.7295 22.7946C18.3114 23.5198 17.9581 24.2772 17.6514 24.9509L18.1514 25.3562L19.1387 22.9948C19.001 22.8917 18.8631 22.8314 18.7295 22.7946ZM35.1523 18.5456C34.6212 18.9042 33.7381 19.1532 32.6543 19.3347C32.5771 19.5661 32.3431 19.7128 32.0957 19.6687L31.2773 19.5222C30.6823 19.5884 30.0543 19.643 29.4111 19.6911L28.0322 21.5124C29.7435 21.668 31.5066 22.034 32.834 22.9148L33.9355 22.0036L35.1523 18.5456ZM28.0879 19.781C27.7852 19.8002 27.4819 19.8201 27.1797 19.8386C27.3093 19.9548 27.3756 20.1339 27.3359 20.3161C27.277 20.5857 27.0109 20.7567 26.7412 20.698L24.1855 20.1413L23.3447 20.6472L23.1924 21.364C23.6159 21.3732 24.0436 21.3847 24.4678 21.3884C25.1681 21.3944 25.9804 21.3974 26.8369 21.4353L28.0879 19.781ZM20.4326 20.74C20.2939 20.8064 20.1767 20.8784 20.083 20.9568L20.2803 21.3259L20.6914 21.0769L20.4326 20.74ZM21.9561 20.3152C21.7767 20.3467 21.6062 20.3805 21.4453 20.4167L21.5537 20.5583L21.9561 20.3152ZM28.3232 12.3034L28.9893 13.2595C29.1475 13.2891 29.3047 13.3201 29.4609 13.3523L29.541 11.9763L28.3232 12.3034ZM25.8145 12.7536C26.1394 12.8042 26.4646 12.8536 26.7891 12.9021L27.2236 11.8669L27.0166 9.76828L25.8145 12.7536Z" fill="#AE6200"/>
</svg>
