<svg width="50" height="48" viewBox="0 0 50 48" fill="none" xmlns="http://www.w3.org/2000/svg">
<path d="M0 11.3165C0 11.3165 9.94724 11.7828 16.2256 12.796C26.6299 14.475 33.6981 17.9633 35.5293 18.9395C34.0447 19.1457 31.3194 19.6101 30.7324 20.3165C29.9171 21.2989 35.8163 22.3341 35 23.3165C34.1836 24.299 23.1328 23.8428 21.5 25.3165C19.8672 26.7902 31.5488 29.8516 30.7324 31.8165C29.9153 33.7812 14.8164 32.8604 14 35.3165C13.1836 37.7726 27.7246 41.8428 26.5 43.3165C25.2754 44.7902 19.5 43.8165 19 45.3165C18.5 46.8165 24.2021 47.3165 24.2021 47.3165H0V11.3165Z" fill="#9A5700"/>
<path d="M41.5827 18.8185C41.814 18.8412 42.0058 19.0245 42.0309 19.2647C42.0594 19.5391 41.8599 19.7846 41.5856 19.8136H41.5846L41.5827 19.8145C41.5805 19.8148 41.5764 19.815 41.5719 19.8155C41.563 19.8165 41.5493 19.8175 41.5319 19.8194C41.4965 19.8233 41.4437 19.8291 41.3766 19.837C41.242 19.8528 41.0483 19.8768 40.8131 19.9083C40.3418 19.9714 39.7069 20.0656 39.0485 20.1895C38.3874 20.314 37.7148 20.4663 37.1647 20.6436C36.8896 20.7324 36.6561 20.824 36.4743 20.9161C36.3989 20.9543 36.3387 20.99 36.2907 21.0216C36.3328 21.0522 36.3866 21.0897 36.4567 21.131C36.8411 21.3573 37.4339 21.5938 38.0836 21.8517C38.7045 22.0981 39.3826 22.366 39.8493 22.6407C40.0735 22.7727 40.3201 22.9454 40.4684 23.171C40.5488 23.2934 40.6166 23.4555 40.611 23.6466C40.6052 23.8417 40.5246 24.007 40.4176 24.1358C40.2982 24.2796 40.1366 24.3758 39.9958 24.4425C39.8465 24.5131 39.6721 24.5729 39.486 24.6261C39.1136 24.7325 38.6426 24.8246 38.1168 24.9083C37.0649 25.0757 35.7235 25.2211 34.3815 25.379C33.0293 25.5381 31.6704 25.7104 30.5514 25.9327C29.9922 26.0438 29.505 26.165 29.1149 26.2989C28.7201 26.4345 28.471 26.5678 28.3415 26.6817C28.4067 26.7878 28.5803 26.9582 28.9176 27.1837C29.5954 27.6366 30.653 28.1386 31.7916 28.6808C32.9055 29.2111 34.0905 29.7772 34.943 30.3399C35.3663 30.6193 35.7481 30.924 35.9977 31.253C36.2521 31.5883 36.4253 32.0329 36.2282 32.5079C36.1308 32.7423 35.9539 32.925 35.7682 33.0665C35.5795 33.2103 35.3495 33.3355 35.0983 33.4474C34.5962 33.671 33.947 33.8675 33.2174 34.045C31.7547 34.4009 29.8812 34.7025 28.027 34.9854C26.1615 35.2701 24.3153 35.5364 22.8688 35.8253C22.145 35.9698 21.5395 36.117 21.0915 36.2686C20.8675 36.3444 20.6964 36.4165 20.5749 36.4835C20.5443 36.5004 20.5201 36.5179 20.4997 36.5313C20.5246 36.5625 20.5583 36.603 20.6071 36.6505C20.8391 36.8759 21.2455 37.156 21.8043 37.4815C22.912 38.1268 24.4767 38.8698 26.0651 39.6251C27.6383 40.3732 29.2367 41.1343 30.3629 41.8038C30.9196 42.1347 31.402 42.4669 31.7086 42.7862C31.8597 42.9436 32.0086 43.1384 32.0749 43.3663C32.1509 43.6281 32.1079 43.9068 31.9176 44.1358C31.5004 44.6379 30.893 44.8533 30.3073 44.9542C29.7207 45.0552 29.0687 45.0551 28.4957 45.0567C27.8958 45.0584 27.3929 45.0632 27.0084 45.1456C26.6284 45.2271 26.5158 45.35 26.4743 45.4747C26.4462 45.5591 26.4585 45.5957 26.4665 45.6143C26.4793 45.6443 26.5172 45.7008 26.6207 45.7726C26.8384 45.9231 27.2082 46.0482 27.6608 46.1388C28.0993 46.2264 28.5593 46.2714 28.9147 46.294C29.0911 46.3053 29.2391 46.3108 29.3424 46.3136C29.394 46.315 29.4346 46.3162 29.4616 46.3165H29.4997C29.7758 46.3165 29.9997 46.5404 29.9997 46.8165C29.9997 47.0583 29.8283 47.2603 29.6002 47.3067L29.4997 47.3165H29.4489C29.4175 47.3161 29.3719 47.3151 29.3151 47.3136C29.2017 47.3105 29.0415 47.3042 28.8512 47.2921C28.4723 47.2679 27.9634 47.219 27.4645 47.1192C26.9798 47.0223 26.4432 46.866 26.0514 46.5948C25.8504 46.4557 25.6577 46.2658 25.5475 46.0089C25.4324 45.7404 25.4293 45.4485 25.526 45.1583C25.7345 44.5331 26.2855 44.2781 26.7985 44.1681C27.3069 44.059 27.9264 44.0583 28.4938 44.0567C29.0884 44.0551 29.6499 44.0528 30.1374 43.9688C30.5657 43.8951 30.8699 43.7676 31.07 43.5792C31.0496 43.5519 31.0247 43.5169 30.9879 43.4786C30.7805 43.2625 30.3963 42.9872 29.8512 42.6632C28.7736 42.0227 27.2242 41.2825 25.6364 40.5274C24.0635 39.7795 22.4528 39.0171 21.3004 38.3458C20.7294 38.0131 20.2339 37.6822 19.9098 37.3673C19.7501 37.2121 19.5958 37.0269 19.5124 36.8145C19.4196 36.5782 19.4132 36.295 19.5836 36.0392L19.6911 35.9054C19.8086 35.7809 19.9532 35.6848 20.0915 35.6085C20.2845 35.502 20.5167 35.4075 20.7711 35.3214C21.2805 35.149 21.9353 34.992 22.6725 34.8448C24.1482 34.5501 26.0279 34.2783 27.8766 33.9962C29.7366 33.7123 31.5665 33.4172 32.9801 33.0733C33.6885 32.901 34.2712 32.7218 34.692 32.5343C34.9022 32.4406 35.057 32.3512 35.1627 32.2706C35.2701 32.1887 35.2993 32.137 35.3043 32.1251C35.311 32.1091 35.343 32.0437 35.2018 31.8575C35.0555 31.6647 34.7861 31.4349 34.3922 31.1749C33.6101 30.6587 32.4957 30.1239 31.362 29.5841C30.2532 29.0562 29.1148 28.5179 28.362 28.0147C27.9967 27.7706 27.6471 27.4877 27.4635 27.1632C27.3651 26.989 27.2964 26.7712 27.3327 26.5304C27.3693 26.2878 27.5009 26.0933 27.6647 25.9454C27.9452 25.6922 28.3516 25.504 28.7897 25.3536C29.2393 25.1993 29.7757 25.0678 30.3571 24.9522C31.5197 24.7212 32.9145 24.5447 34.2643 24.3858C35.6243 24.2258 36.934 24.0842 37.9596 23.921C38.4726 23.8394 38.8972 23.7549 39.2116 23.6651C39.3123 23.6364 39.3955 23.6057 39.4645 23.5792C39.4302 23.556 39.39 23.53 39.3424 23.502C38.958 23.2757 38.3652 23.0392 37.7155 22.7813C37.0946 22.5349 36.4165 22.267 35.9499 21.9923C35.7256 21.8603 35.479 21.6876 35.3307 21.462C35.2503 21.3396 35.1825 21.1775 35.1881 20.9864C35.1939 20.7913 35.2745 20.626 35.3815 20.4972L35.5182 20.3556C35.6663 20.2225 35.8443 20.1136 36.0221 20.0235C36.2672 19.8994 36.5544 19.7894 36.8581 19.6915C37.4657 19.4956 38.1844 19.3349 38.8629 19.2071C39.5441 19.0789 40.1979 18.9817 40.6803 18.9171C40.9217 18.8847 41.1211 18.8602 41.2604 18.8438C41.3301 18.8357 41.385 18.8294 41.4225 18.8253C41.4412 18.8232 41.4556 18.8215 41.4655 18.8204C41.4704 18.8199 41.4746 18.8197 41.4772 18.8194H41.4811L41.5827 18.8185Z" fill="#9A5700"/>
<rect x="25" y="18.3165" width="25" height="1" fill="#9A5700"/>
<rect x="37" y="27.3165" width="6" height="1" rx="0.5" fill="#9A5700"/>
<rect x="44" y="22.3165" width="5" height="1" rx="0.5" fill="#9A5700"/>
<rect x="39" y="34.3165" width="9" height="1" rx="0.5" fill="#9A5700"/>
<rect x="35" y="40.3165" width="4" height="1" rx="0.5" fill="#9A5700"/>
<rect x="43" y="43.3165" width="4" height="1" rx="0.5" fill="#9A5700"/>
<path d="M16 3.81653C14.9597 4.19042 8.86747 12.3019 8.51388 13.3625C8.1603 14.4232 12.0974 17.6531 13.1101 17.9587C14.1228 18.2643 21.2929 10.5237 22 9.81655C22.7071 9.10944 25.0607 5.37722 24 4.31655C22.9394 3.25589 17.0403 3.44264 16 3.81653Z" fill="#9A5700"/>
<path d="M10.3677 13.3909C10.8079 12.3769 9.04437 2.9268 8.51378 1.94267C7.98319 0.958532 2.93318 1.61464 2.01687 2.14312C1.10056 2.67161 0.310796 11.7003 0.341635 12.6998C0.372475 13.6993 3.04089 19.1196 4.54019 19.0734C6.03948 19.0271 9.92753 14.405 10.3677 13.3909Z" fill="#9A5700"/>
<path d="M23.0215 11.1284C22.6205 11.337 20.7459 14.7918 20.6608 15.2409C20.5758 15.6901 22.3482 16.7828 22.7753 16.851C23.2024 16.9193 25.7791 14.2561 26.0268 13.9308C26.2745 13.6055 26.8237 11.197 26.3357 10.8255C25.8478 10.4539 23.4225 10.9198 23.0215 11.1284Z" fill="#9A5700"/>
<path d="M31.9724 13.903C31.6447 13.5916 27.768 12.9429 27.3156 13.0086C26.8632 13.0742 26.4066 15.1057 26.481 15.5318C26.5554 15.9579 29.912 17.528 30.3002 17.6565C30.6884 17.7849 33.1444 17.5206 33.337 16.9383C33.5296 16.356 32.3001 14.2143 31.9724 13.903Z" fill="#9A5700"/>
<path d="M37.0934 15.5124C37.0381 15.0638 34.4561 12.1002 34.065 11.8635C33.6739 11.6269 32.0307 12.9058 31.8175 13.2821C31.6043 13.6584 33.1993 17.0033 33.4176 17.3491C33.6358 17.6948 35.7005 19.0509 36.2192 18.7236C36.7378 18.3962 37.1487 15.961 37.0934 15.5124Z" fill="#9A5700"/>
</svg>
