<svg width="51" height="38" viewBox="0 0 51 38" fill="none" xmlns="http://www.w3.org/2000/svg">
<path d="M18.8604 0.0121512C19.1297 -0.0481231 19.3966 0.121733 19.457 0.391057L20.3867 4.53168L22.3223 0.421331C22.4399 0.171514 22.7385 0.0644026 22.9883 0.182073C23.2379 0.299731 23.3449 0.59742 23.2275 0.847112L22.0996 3.24262L25.0713 1.90864C25.3229 1.79599 25.6192 1.90821 25.7324 2.15961C25.8454 2.41127 25.7328 2.70739 25.4814 2.82074L21.4443 4.63324L20.7002 6.21235L20.1279 9.71528L19.8359 13.2875L21.6318 12.9184C21.9021 12.8629 22.1668 13.0369 22.2227 13.3071C22.2782 13.5774 22.1033 13.8422 21.833 13.8979L19.7012 14.3364L19.0254 17.3325L21.7725 17.1254L22.6934 15.8823L22.6309 15.7875C22.4784 15.5575 22.5414 15.2468 22.7715 15.0942C22.8964 15.0114 23.0445 14.9932 23.1787 15.0297L24.7002 11.8012L23.2354 9.61567C23.0817 9.38633 23.1429 9.07605 23.3721 8.92231C23.6014 8.76876 23.9117 8.82985 24.0654 9.05903L25.1963 10.7475L26.5068 7.9643L27.3223 5.07758C27.3974 4.81197 27.6738 4.65788 27.9395 4.73285C28.2047 4.80808 28.3589 5.08363 28.2842 5.34907L27.6816 7.48383L29.3252 7.14594C29.5955 7.09055 29.8603 7.26532 29.916 7.53559C29.9712 7.80569 29.7964 8.06963 29.5264 8.12543L27.3232 8.57953L24.1523 15.311L25.5791 15.2778C25.855 15.2715 26.0843 15.4901 26.0908 15.7661C26.0973 16.042 25.8785 16.2711 25.6025 16.2778L24.1777 16.31L25.5615 18.3969L26.7451 18.5131L27.3691 17.5727L27.2998 14.6196C27.2933 14.3435 27.512 14.1143 27.7881 14.1079C28.0641 14.1014 28.2933 14.3201 28.2998 14.5961L28.3418 16.4106L28.6787 15.9233C28.602 15.828 28.5596 15.7051 28.5693 15.5737C28.5901 15.2986 28.8294 15.0914 29.1045 15.1118L29.2334 15.1205L31.1348 12.2319C31.2864 12.0015 31.5966 11.9371 31.8271 12.0883C32.0577 12.2401 32.1222 12.5511 31.9707 12.7817L30.5889 14.8803L32.0176 14.767L31.9609 13.9135C31.9428 13.6382 32.1514 13.3997 32.4268 13.3813C32.7022 13.363 32.9405 13.5717 32.959 13.8471L33.0146 14.6879L33.5889 14.643C33.8639 14.6216 34.1052 14.8279 34.127 15.103C34.1485 15.378 33.9421 15.6192 33.667 15.6411L33.2451 15.6733L34.0703 16.1489L35.9121 14.2778C36.1058 14.0812 36.4224 14.0793 36.6191 14.2729C36.8156 14.4666 36.8176 14.7832 36.624 14.9799L34.8516 16.7807L36.917 18.9467L38.7275 17.6889L38.5801 15.477C38.5617 15.2015 38.7704 14.9632 39.0459 14.9448C39.3211 14.9266 39.5595 15.1344 39.5781 15.4096L39.7627 18.187L39.5303 18.3481L37.3682 19.85L37.4443 20.9887L40.1064 20.4252L41.3281 18.0424C41.4541 17.7969 41.7553 17.6999 42.001 17.8256C42.2463 17.9516 42.3432 18.252 42.2178 18.4975L40.9922 20.8872L42.4951 24.56C44.3621 25.1042 46.1064 25.7898 47.1006 25.8823L46.7402 24.6528L45.8633 23.5092L44.6338 23.5913C44.3584 23.6096 44.1202 23.4017 44.1016 23.1264C44.0832 22.8509 44.2919 22.6126 44.5674 22.5942L45.3271 22.5434L44.4824 20.7807C44.3632 20.5318 44.4679 20.2341 44.7168 20.1147C44.9658 19.9953 45.2634 20.1001 45.3828 20.3491L46.5234 22.728L47.0664 23.435L47.5986 22.1674C47.7055 21.9129 47.9983 21.7931 48.2529 21.8998C48.5074 22.0067 48.6272 22.2996 48.5205 22.5541L47.7246 24.4536L48.1094 25.768C49.4412 25.4773 51 24.8813 51 24.8813V37.8813H0V23.8813C0 23.8813 1.0372 24.1865 2.54004 24.559L2.53809 24.5541C2.53343 24.543 2.53114 24.5312 2.52734 24.52L0.889648 23.4829C0.656838 23.335 0.587731 23.0255 0.735352 22.7924C0.883257 22.5596 1.1927 22.4915 1.42578 22.6391L4.30566 24.4623L5.87793 20.1518L3.11133 17.31L3.10449 17.3032L0.922852 14.894C0.737685 14.6893 0.753413 14.3723 0.958008 14.187C1.1627 14.0018 1.47976 14.0175 1.66504 14.2221L2.79395 15.4692L2.42188 12.3422C2.38941 12.0681 2.58525 11.8202 2.85938 11.7875C3.13346 11.7551 3.38146 11.9509 3.41406 12.225L3.95117 16.7387L6.05566 18.9018L6.47852 14.2954L5.13086 11.5463C5.00936 11.2984 5.11152 10.999 5.35938 10.8774C5.60719 10.7559 5.90663 10.8582 6.02832 11.1059L6.85449 12.7905L8.77148 5.74067C8.84404 5.47453 9.11853 5.31791 9.38477 5.39008C9.65121 5.46254 9.80876 5.73691 9.73633 6.00336L7.4834 14.2895L7.33887 15.8559L9.33594 13.9965C9.53788 13.8084 9.85372 13.8192 10.042 14.0209C10.2302 14.2229 10.2194 14.5387 10.0176 14.727L7.20215 17.35L6.95215 20.0747L6.94727 20.1391L6.9248 20.2006L6.23926 22.0786C6.27397 22.0867 6.30831 22.0986 6.3418 22.1147C6.59075 22.2341 6.69548 22.5317 6.57617 22.7807L5.73145 24.5434L6.49121 24.5942C6.76674 24.6126 6.97542 24.8509 6.95703 25.1264C6.94784 25.2624 6.88444 25.3812 6.79004 25.4653C6.88831 25.4822 6.98674 25.4979 7.08496 25.5141L8.26953 22.0502L8.29395 21.977L8.34082 21.9145L9.06543 20.935L8.84082 20.4975C8.71544 20.252 8.81243 19.9516 9.05762 19.8256C9.3022 19.7004 9.60159 19.7963 9.72852 20.0395L9.8418 19.8881L12.5527 15.269L12.4824 12.2426L10.0762 9.53168C9.89303 9.32515 9.91173 9.0079 10.1182 8.82465C10.3247 8.64151 10.6419 8.66022 10.8252 8.86664L12.3936 10.6342L12.1152 5.92426L10.749 3.1391C10.6275 2.89124 10.7298 2.5918 10.9775 2.47016C11.2255 2.34859 11.5259 2.45073 11.6475 2.69867L12.5986 4.6391L14.0723 1.50922C14.19 1.25951 14.4885 1.15232 14.7383 1.26996C14.9879 1.38771 15.0952 1.68624 14.9775 1.93598L13.1133 5.89203L13.4189 11.0629L14.4248 10.2719C14.6417 10.1012 14.9561 10.1382 15.127 10.3549C15.2977 10.5718 15.2608 10.8862 15.0439 11.0571L13.4834 12.2856L13.5449 14.9291L15.7734 15.0629C16.0491 15.0794 16.2596 15.3156 16.2432 15.5913C16.2267 15.8669 15.9895 16.0765 15.7139 16.06L13.332 15.9174L12.4756 17.3754C12.4801 17.4084 12.4808 17.4426 12.4785 17.477L12.3311 19.6889L12.708 19.9506L13.459 20.0405C13.7332 20.0731 13.93 20.322 13.8975 20.5961C13.8911 20.6494 13.8729 20.6983 13.8516 20.7446L14.1426 20.9467L15.0684 19.9741L14.7295 19.4116C14.587 19.1751 14.663 18.8686 14.8994 18.726C15.1359 18.5835 15.4424 18.6595 15.585 18.8959L15.7832 19.2241L16.207 18.7807L14.4346 16.9799C14.241 16.7833 14.243 16.4666 14.4395 16.2729C14.6362 16.0793 14.9527 16.0812 15.1465 16.2778L16.9883 18.1489L17.9395 17.6L18 17.3334L18.0996 15.8471C18.1135 15.6411 18.2502 15.4718 18.4336 15.4077L18.7891 13.8334L19.1172 9.81L16.4727 6.45063C16.3019 6.23374 16.3389 5.91934 16.5557 5.74848C16.7726 5.57772 17.0869 5.61474 17.2578 5.83149L19.3213 8.4516L19.71 6.0766L18.4824 0.608831C18.4223 0.339563 18.5911 0.072603 18.8604 0.0121512ZM27.792 24.7153L28.0479 25.5873C28.8394 25.7872 29.6436 25.9134 30.5 25.8813C30.6699 25.8749 30.835 25.8623 30.9961 25.8471L31.6729 25.061L28.6201 24.6606L27.792 24.7153ZM9.93262 25.8539C10.1758 25.8683 10.4123 25.8784 10.6406 25.8813L11.1689 24.1674L10.9131 23.4575L9.93262 25.8539ZM12.1279 24.4506L11.6973 25.8481C13.268 25.7305 14.57 25.3255 15.8418 24.9135L15.9209 24.5961L15.9473 24.4868L16.4561 23.8627L14.0469 24.102L13.9717 24.0864L12.8828 23.8559L12.1279 24.4506ZM9.19043 22.4457L8.08887 25.6655C8.35853 25.7023 8.62516 25.7376 8.8877 25.7661L10.0664 22.8872L9.57422 21.9272L9.19043 22.4457ZM32.5703 25.5522C32.855 25.473 33.129 25.3829 33.3975 25.2875L32.8584 25.2172L32.5703 25.5522ZM26.1641 25.0082C26.4132 25.0929 26.6612 25.1745 26.9082 25.2543L26.7881 24.8461L26.1641 25.0082ZM28.4541 19.6606L27.46 20.2416L29.2705 20.1059C29.5456 20.0854 29.7858 20.2917 29.8066 20.5668C29.8099 20.61 29.8052 20.6521 29.7979 20.6928L30.2002 20.0825C30.3519 19.8519 30.6629 19.7874 30.8936 19.9389C31.1239 20.0907 31.1876 20.4007 31.0361 20.6313L29.4092 23.103L30.6973 23.7104C30.8089 23.763 30.8902 23.8523 30.9375 23.9565L33.7559 24.3276L33.7676 24.3286L35.2197 24.5903C36.1896 24.2256 37.2118 23.9152 38.5 23.8813C39.37 23.8584 40.324 24.0105 41.2812 24.2377L40.1377 21.4409L37.0869 22.0864L37.0117 22.102L34.0322 21.8071L32.6836 22.3588C32.428 22.4634 32.1358 22.341 32.0312 22.0854C31.9267 21.8298 32.0491 21.5376 32.3047 21.433L33.1904 21.0707L32.0449 19.4204L28.4541 19.6606ZM17.251 24.4692C17.5278 24.3872 17.8082 24.3128 18.0928 24.2426L17.6006 24.0414L17.251 24.4692ZM29.584 21.018C29.5146 21.0644 29.4338 21.0963 29.3447 21.103L26.8623 21.2895L26.5059 22.0493L26.2236 22.0766L25.4287 22.1557L25.9023 22.434C26.1405 22.5737 26.2206 22.8804 26.0811 23.1186C25.9414 23.3567 25.6347 23.4368 25.3965 23.2973L23.7393 22.3256L23.5527 22.3452L22.4121 23.9907C22.5315 24.0077 22.6496 24.027 22.7666 24.0473L23.0918 24.0258L23.1221 23.976C23.2617 23.7379 23.5685 23.6578 23.8066 23.7973C23.8794 23.84 23.9351 23.9001 23.9766 23.9672L26.9414 23.77L27.5967 23.3754L27.0732 22.4819C26.9338 22.2437 27.0138 21.9369 27.252 21.7973C27.4901 21.6578 27.7969 21.7379 27.9365 21.976L28.415 22.7934L29.584 21.018ZM18.8789 22.4789C18.8869 22.4871 18.8967 22.4936 18.9043 22.5024L20.1143 23.9096C20.4005 23.8888 20.6952 23.8782 21 23.8813C21.0899 23.8822 21.1791 23.885 21.2676 23.8881L22.751 21.7465L22.6045 21.6606L19.7061 21.4663L18.8789 22.4789ZM18.7959 18.353L18.7588 18.52L18.7295 18.6547L16.4502 21.0434L16.4258 21.0678L16.3975 21.0903L14.6514 22.4633L14.6133 23.0414L16.8232 22.8227L18.3535 20.6176L18.5156 20.3852L19.2588 20.434L19.9326 19.6108L20.9863 18.187L18.7959 18.353ZM10.2373 21.0317L10.9434 22.4077C10.9755 22.3866 11.0102 22.3685 11.0479 22.3549C11.278 22.2722 11.5292 22.3681 11.6484 22.5717L12.6318 22.7807L13.6826 21.9526L13.6904 21.85L12.3438 20.9145L10.4883 20.6938L10.2373 21.0317ZM28.3135 18.2114L28.1074 18.6469L28.3105 18.6674L32.543 18.3852L32.7051 18.6176L34.2354 20.8227L36.4453 21.0414L36.3643 19.8149L33.8447 17.1713L32.4424 16.3666L29.7295 16.1616L28.3135 18.2114ZM20.7217 20.225L20.7148 20.2348L20.4844 20.5161L22.748 20.6674L22.9141 20.6508L22.9629 20.2416C22.9957 19.9678 23.2447 19.7718 23.5186 19.8041C23.7928 19.8368 23.9897 20.0866 23.957 20.3608L23.9336 20.5502L25.1631 20.4291L25.6729 20.1303L26.1201 19.4555L25.2275 19.3676L21.7139 19.103C21.6653 19.0993 21.6196 19.0861 21.5762 19.0698L20.7217 20.225ZM11.0781 19.7563L11.3223 19.7846L11.3555 19.2817L11.0781 19.7563ZM22.2637 18.1411L24.293 18.2944L23.2803 16.768L22.2637 18.1411Z" fill="#AE6200"/>
</svg>
