<svg width="51" height="47" viewBox="0 0 51 47" fill="none" xmlns="http://www.w3.org/2000/svg">
<path d="M11.3418 0.0661572C11.5814 -0.0710889 11.8871 0.0121328 12.0244 0.251704C12.6116 1.27654 13.3957 3.06569 13.873 5.14819C14.3498 7.22841 14.5312 9.64615 13.8623 11.9021C13.0421 14.6677 11.6674 16.4834 10.4766 18.3328C9.28756 20.1793 8.23063 22.1216 7.89062 25.2449C7.62076 27.7243 8.20526 30.518 9.07031 33.03C9.8285 35.2316 10.7904 37.18 11.5322 38.4539C11.8502 38.4178 12.1694 38.3834 12.4893 38.3484C11.9669 36.9271 11.378 34.9411 11 32.7664C10.5338 30.0842 10.3773 27.065 11.0938 24.4558C11.983 21.2177 13.4444 19.3328 14.9648 17.6394C16.4829 15.9487 17.9995 14.5015 19.1709 12.0632C19.8332 10.6845 20.1226 9.14115 20.1826 7.62475C19.9135 6.8112 19.5712 6.02761 19.1895 5.29565C18.2483 3.49137 17.0973 2.03752 16.3369 1.26245C16.1437 1.06531 16.1467 0.748747 16.3438 0.555415C16.5408 0.362325 16.8575 0.365348 17.0508 0.562251C17.8696 1.397 19.0642 2.90864 20.0469 4.77709C19.8483 3.21684 19.4849 1.87894 19.1738 1.05444C19.0765 0.796143 19.2075 0.508336 19.4658 0.410884C19.7241 0.31351 20.0119 0.443589 20.1094 0.701899C20.5263 1.80693 21.0168 3.69788 21.1572 5.82983C21.1925 6.3661 21.2055 6.92083 21.1895 7.48413C21.5811 8.71933 21.8163 10.0363 21.7725 11.3718C21.6776 14.2546 20.806 16.3579 20.1211 18.448C19.4372 20.5351 18.906 22.6819 19.3662 25.7898C19.4037 26.0431 19.453 26.2968 19.5088 26.5515L20.5693 25.4412L20.3291 27.0095V27.0154C20.3287 27.018 20.3279 27.0215 20.3271 27.0261C20.3255 27.0366 20.3234 27.0528 20.3203 27.073C20.314 27.1136 20.304 27.1737 20.292 27.2498C20.2679 27.4022 20.2324 27.6215 20.1885 27.8874C20.1589 28.0665 20.124 28.2669 20.0869 28.4831C20.6793 30.0618 21.5357 31.613 22.4746 33.0242C23.7233 34.9009 25.0973 36.4993 26.127 37.5476C26.3664 37.5544 26.6103 37.5646 26.8584 37.574C26.1282 36.4577 25.3249 35.0777 24.6104 33.5603C23.4506 31.0974 22.5001 28.228 22.5 25.5222C22.5 22.1641 23.41 19.9591 24.4277 17.9236C25.444 15.8911 26.5238 14.094 27.0078 11.4324C27.3867 9.34786 26.9945 7.14832 26.3271 5.22338C25.6605 3.30082 24.7343 1.69428 24.0957 0.816157C23.9334 0.592873 23.9828 0.280344 24.2061 0.117915C24.4294 -0.0444533 24.7419 0.00495967 24.9043 0.228267C25.599 1.18351 26.5725 2.87751 27.2725 4.89624C27.9715 6.9127 28.4131 9.29694 27.9922 11.6121C27.4761 14.45 26.3059 16.4035 25.3223 18.3708C24.3401 20.3352 23.5 22.3805 23.5 25.5222C23.5001 28.0163 24.3828 30.7309 25.5146 33.1345C26.1346 34.451 26.8251 35.659 27.4678 36.6706C27.0949 35.5584 26.7303 34.2781 26.4463 32.9206C26.0838 31.1882 25.8483 29.3092 25.8994 27.4831C25.8934 27.4584 25.8881 27.4349 25.8828 27.4128C25.8648 27.338 25.8503 27.279 25.8408 27.239C25.8361 27.2191 25.8325 27.2035 25.8301 27.1931C25.8289 27.1881 25.8278 27.184 25.8271 27.1814V27.1765L25.4629 25.6326L25.9951 26.1081C26.0541 25.5996 26.1398 25.0992 26.2559 24.6121C27.034 21.3454 28.4308 19.412 29.8926 17.6677C31.3521 15.9261 32.8187 14.4279 33.9062 11.9509C34.7579 10.0109 34.8858 7.77994 34.6826 5.75268C34.5591 4.52118 34.314 3.38157 34.0479 2.4519C33.7091 1.98883 33.391 1.60141 33.1221 1.30737C32.9357 1.10362 32.9496 0.786715 33.1533 0.600337C33.2727 0.491346 33.4304 0.452956 33.5781 0.479243C33.631 0.399607 33.7079 0.334223 33.8027 0.294673C34.0575 0.188739 34.3499 0.309464 34.4561 0.564204C34.6184 0.953657 34.7922 1.44341 34.96 2.00854C35.5508 2.83272 36.1857 3.85579 36.7354 5.00561C37.6558 6.9312 38.3613 9.2516 38.2021 11.5994C38.0069 14.4771 37.0629 16.549 36.3057 18.614C35.5495 20.676 34.9433 22.8025 35.2949 25.9246C35.3918 26.7848 35.5994 27.6589 35.8848 28.529C36.016 28.3456 36.1462 28.1701 36.2725 28.0066C36.5902 27.595 36.8889 27.2417 37.1084 26.9919C37.2182 26.867 37.3088 26.7677 37.3721 26.699C37.4034 26.6648 37.4281 26.6382 37.4453 26.6199C37.4539 26.6107 37.4612 26.6023 37.4658 26.5974C37.4679 26.5952 37.4705 26.5938 37.4717 26.5925L37.4736 26.5896L38 26.0369C38 26.032 38 26.0271 38 26.0222C38 22.6641 38.91 20.4591 39.9277 18.4236C40.944 16.3911 42.0238 14.594 42.5078 11.9324C42.8867 9.84786 42.4945 7.64832 41.8271 5.72338C41.1605 3.80082 40.2343 2.19428 39.5957 1.31616C39.4334 1.09287 39.4828 0.780344 39.7061 0.617915C39.9294 0.455547 40.2419 0.50496 40.4043 0.728267C41.099 1.68351 42.0725 3.37751 42.7725 5.39624C43.4715 7.4127 43.9131 9.79694 43.4922 12.1121C42.9761 14.95 41.8059 16.9035 40.8223 18.8708C39.8401 20.8352 39 22.8805 39 26.0222C39.0001 28.5163 39.8828 31.2309 41.0146 33.6345C41.9388 35.5971 43.0166 37.3209 43.8672 38.5066C43.3072 37.3657 42.7182 36.0018 42.2197 34.529C41.3471 31.9504 40.729 28.9917 41.0361 26.3035C41.4174 22.9673 42.5713 20.8801 43.8135 18.9734C45.0539 17.0694 46.3313 15.4057 47.1143 12.8162C47.7272 10.7882 47.5871 8.55823 47.1426 6.57006C46.6985 4.5843 45.9605 2.88308 45.4258 1.93823C45.29 1.69795 45.375 1.39353 45.6152 1.25756C45.8555 1.12174 46.1599 1.20588 46.2959 1.44604C46.8776 2.47388 47.6529 4.26721 48.1191 6.35229C48.5848 8.43513 48.7523 10.8547 48.0713 13.1072C47.2363 15.8681 45.852 17.6764 44.6514 19.5193C43.4527 21.3593 42.386 23.2957 42.0293 26.4167C41.7461 28.8948 42.3153 31.6921 43.167 34.2087C43.8541 36.2391 44.7161 38.0552 45.4219 39.3279C47.4125 39.5842 49.1639 39.8257 50.5 40.0222V46.0222H0V40.0222C2.05062 39.6915 5.19872 39.2297 8.7002 38.7927C7.79299 37.5548 6.61459 35.6929 5.61035 33.5603C4.45061 31.0974 3.50006 28.228 3.5 25.5222C3.5 22.1641 4.40997 19.9591 5.42773 17.9236C6.44396 15.8911 7.52384 14.094 8.00781 11.4324C8.38673 9.34786 7.99454 7.14832 7.32715 5.22338C6.66052 3.30082 5.73431 1.69428 5.0957 0.816157C4.93336 0.592873 4.98285 0.280344 5.20605 0.117915C5.42938 -0.0444533 5.74189 0.00495967 5.9043 0.228267C6.59898 1.18351 7.57252 2.87751 8.27246 4.89624C8.97155 6.9127 9.41312 9.29694 8.99219 11.6121C8.47608 14.45 7.30594 16.4035 6.32227 18.3708C5.34011 20.3352 4.5 22.3805 4.5 25.5222C4.50006 28.0163 5.38279 30.7309 6.51465 33.1345C7.62347 35.4892 8.95127 37.5015 9.8457 38.6511C10.0479 38.6268 10.2512 38.6039 10.4551 38.5798C9.71915 37.2627 8.83469 35.4169 8.125 33.3562C7.23859 30.7822 6.60366 27.8264 6.89648 25.1365C7.25992 21.798 8.40362 19.7043 9.63574 17.7908C10.8659 15.8803 12.1342 14.2105 12.9033 11.6169C13.5055 9.5857 13.3536 7.35664 12.8984 5.37084C12.4438 3.38738 11.697 1.68982 11.1572 0.747798C11.0202 0.508358 11.1026 0.2035 11.3418 0.0661572ZM38.1621 28.0398C38.0764 28.5532 37.9639 29.2116 37.834 29.9001C37.7026 30.5964 37.5531 31.3282 37.4004 31.9744C37.6396 32.4136 37.8902 32.8444 38.1484 33.2634C39.5387 35.5195 41.1146 37.3983 42.1309 38.4294C42.2657 38.5665 42.3029 38.761 42.248 38.9324C42.5035 38.9629 42.7568 38.9936 43.0078 39.0242C42.1308 37.7931 41.0446 36.0442 40.1104 34.0603C39.2359 32.2032 38.4809 30.1147 38.1621 28.0398ZM37.0195 33.3269C36.9572 33.5024 36.8975 33.6568 36.833 33.7781C36.4991 34.4061 36.0202 34.9978 35.6377 35.4226C35.4443 35.6374 35.2702 35.8151 35.1445 35.9392C35.103 35.9802 35.0664 36.0157 35.0361 36.0447L34.3672 38.0906C36.6171 38.2973 38.9158 38.5438 41.0996 38.7976C40.045 37.6748 38.593 35.8896 37.2979 33.7878C37.2043 33.636 37.1115 33.4823 37.0195 33.3269ZM20.7637 10.5876C20.5935 11.2391 20.3692 11.8808 20.0732 12.4968C18.8241 15.0968 17.1785 16.6707 15.709 18.3074C14.2417 19.9415 12.8896 21.6911 12.0576 24.7205C11.3972 27.1256 11.5294 29.9778 11.9844 32.5955C12.3733 34.8329 12.9926 36.8631 13.5146 38.238C13.6526 38.2236 13.7907 38.2102 13.9287 38.196L13.7881 36.0408C13.7659 36.0052 13.7391 35.9619 13.709 35.9119C13.618 35.7605 13.4936 35.5457 13.3594 35.2898C13.0939 34.7836 12.7765 34.0913 12.6084 33.4001C12.5144 33.0132 12.4933 32.3708 12.501 31.6863C12.5089 30.9806 12.5495 30.1649 12.5986 29.3953C12.6478 28.6247 12.7064 27.8943 12.7529 27.3572C12.7762 27.0886 12.7962 26.8673 12.8105 26.7136C12.8177 26.6371 12.8232 26.5768 12.8271 26.5359C12.8291 26.5156 12.831 26.4996 12.832 26.489C12.8325 26.4841 12.8328 26.48 12.833 26.4773C12.8331 26.4762 12.8338 26.475 12.834 26.4744V26.4724L12.9902 24.8933L13.7676 26.2771L13.7686 26.28C13.7694 26.2816 13.771 26.2842 13.7725 26.2869C13.7758 26.2928 13.7811 26.3023 13.7871 26.3132C13.7992 26.3353 13.8169 26.3672 13.8389 26.408C13.8831 26.4903 13.946 26.6094 14.0215 26.7576C14.1723 27.0538 14.3742 27.4697 14.5801 27.947C14.9848 28.8853 15.4322 30.1243 15.4902 31.1746C15.5467 32.1976 15.357 33.4199 15.1641 34.3601C15.0665 34.8355 14.9662 35.2502 14.8896 35.5456C14.8515 35.6931 14.8187 35.8114 14.7959 35.8933C14.7916 35.9088 14.7868 35.9234 14.7832 35.9363L14.9238 38.0955C15.058 38.0824 15.1922 38.0701 15.3262 38.0574L16.0977 35.697C16.0973 35.6837 16.0961 35.6682 16.0957 35.6521C16.0939 35.567 16.0923 35.4441 16.0918 35.2917C16.0908 34.9865 16.0959 34.5597 16.1191 34.0749C16.1651 33.1162 16.2838 31.8851 16.5918 30.908C16.9081 29.9048 17.6481 28.8154 18.2725 28.0066C18.4224 27.8124 18.568 27.6309 18.7031 27.4675C18.563 26.9584 18.4526 26.4469 18.377 25.9363C17.8851 22.6143 18.4622 20.2992 19.1709 18.1365C19.8785 15.9772 20.6836 14.0414 20.7725 11.3376C20.7807 11.0874 20.7763 10.8373 20.7637 10.5876ZM35.5947 4.96069C35.6259 5.18818 35.6542 5.4197 35.6777 5.65405C35.8905 7.77751 35.7681 10.1988 34.8223 12.3533C33.6626 14.9945 32.071 16.6234 30.6582 18.3093C29.2476 19.9926 27.9565 21.7882 27.2285 24.8445C27.068 25.5184 26.9713 26.2247 26.9248 26.949C26.9611 26.9836 27.001 27.0206 27.043 27.0613C27.2816 27.2926 27.6066 27.6209 27.9561 28.0056C28.643 28.7621 29.468 29.7896 29.8633 30.7644C30.2483 31.7139 30.4647 32.9315 30.5869 33.8835C30.6487 34.365 30.6885 34.7901 30.7119 35.0945C30.7236 35.2463 30.7304 35.3689 30.7354 35.4539C30.7363 35.4697 30.7366 35.4846 30.7373 35.4978L31.7256 37.8669C31.7864 37.8717 31.8472 37.8767 31.9082 37.8816L31.7881 36.0408C31.7659 36.0052 31.7391 35.9619 31.709 35.9119C31.618 35.7605 31.4936 35.5457 31.3594 35.2898C31.0939 34.7836 30.7765 34.0913 30.6084 33.4001C30.5144 33.0132 30.4933 32.3708 30.501 31.6863C30.5089 30.9806 30.5495 30.1649 30.5986 29.3953C30.6478 28.6247 30.7064 27.8943 30.7529 27.3572C30.7762 27.0886 30.7962 26.8673 30.8105 26.7136C30.8177 26.6371 30.8232 26.5768 30.8271 26.5359C30.8291 26.5156 30.831 26.4996 30.832 26.489C30.8325 26.4841 30.8328 26.48 30.833 26.4773C30.8331 26.4762 30.8338 26.475 30.834 26.4744V26.4724L30.9902 24.8933L31.7676 26.2771L31.7686 26.28C31.7694 26.2816 31.771 26.2842 31.7725 26.2869C31.7758 26.2928 31.7811 26.3023 31.7871 26.3132C31.7992 26.3353 31.8169 26.3672 31.8389 26.408C31.8831 26.4903 31.946 26.6094 32.0215 26.7576C32.1723 27.0538 32.3742 27.4697 32.5801 27.947C32.9848 28.8853 33.4322 30.1243 33.4902 31.1746C33.5467 32.1976 33.357 33.4199 33.1641 34.3601C33.0665 34.8355 32.9662 35.2502 32.8896 35.5456C32.8515 35.6931 32.8187 35.8114 32.7959 35.8933C32.7916 35.9088 32.7868 35.9234 32.7832 35.9363L32.915 37.9636C33.0583 37.9758 33.2018 37.9882 33.3457 38.0007L34.0977 35.697C34.0973 35.6837 34.0961 35.6682 34.0957 35.6521C34.0939 35.567 34.0923 35.4441 34.0918 35.2917C34.0908 34.9865 34.0959 34.5597 34.1191 34.0749C34.1651 33.1162 34.2838 31.8851 34.5918 30.908C34.7285 30.4745 34.9458 30.0257 35.1973 29.5896C34.757 28.4221 34.4345 27.2241 34.3008 26.0369C33.9249 22.7 34.5827 20.4069 35.3662 18.2703C36.1486 16.1369 37.021 14.23 37.2041 11.531C37.3473 9.41719 36.7107 7.27539 35.832 5.43725C35.7548 5.27562 35.675 5.11676 35.5947 4.96069ZM19.7598 30.2722C19.6351 30.9149 19.5012 31.5702 19.3613 32.1443C19.1993 32.8094 19.0199 33.4265 18.833 33.7781C18.4991 34.4061 18.0202 34.9978 17.6377 35.4226C17.4443 35.6374 17.2702 35.8151 17.1445 35.9392C17.103 35.9802 17.0664 36.0157 17.0361 36.0447L16.4111 37.9578C19.354 37.6958 22.1825 37.5222 24.5 37.5222C24.5758 37.5222 24.6523 37.5228 24.7295 37.5232C23.7785 36.4808 22.6689 35.1204 21.6426 33.5779C20.9592 32.5508 20.3066 31.4347 19.7598 30.2722ZM27.4932 33.03C27.8849 34.8068 28.4106 36.4302 28.8916 37.6706C29.4505 37.7033 30.0232 37.7404 30.6064 37.782L29.8301 35.9197C29.7976 35.8932 29.7586 35.8606 29.7139 35.823C29.5787 35.7093 29.3906 35.5471 29.1807 35.3484C28.7655 34.9554 28.2414 34.4029 27.8584 33.8035C27.7387 33.616 27.6167 33.3452 27.4932 33.03Z" fill="black"/>
</svg>
