<svg width="50" height="36" viewBox="0 0 50 36" fill="none" xmlns="http://www.w3.org/2000/svg">
<path d="M0 0C0 0 9.94724 0.466335 16.2256 1.47949C26.6299 3.1585 33.6981 6.64681 35.5293 7.62305C34.0447 7.82917 31.3194 8.29358 30.7324 9C29.9171 9.98239 35.8163 11.0176 35 12C34.1836 12.9825 23.1328 12.5263 21.5 14C19.8672 15.4737 31.5488 18.5351 30.7324 20.5C29.9153 22.4647 14.8164 21.5439 14 24C13.1836 26.4561 27.7246 30.5263 26.5 32C25.2754 33.4737 19.5 32.5 19 34C18.5 35.5 24.2021 36 24.2021 36H0V0Z" fill="#9A5700"/>
<path d="M41.5827 7.50195C41.814 7.52472 42.0058 7.70799 42.0309 7.94824C42.0594 8.22262 41.8599 8.46813 41.5856 8.49707H41.5846L41.5827 8.49805C41.5805 8.49827 41.5764 8.49855 41.5719 8.49902C41.563 8.49998 41.5493 8.501 41.5319 8.50293C41.4965 8.50685 41.4437 8.51264 41.3766 8.52051C41.242 8.53631 41.0483 8.56031 40.8131 8.5918C40.3418 8.65492 39.7069 8.74912 39.0485 8.87305C38.3874 8.99749 37.7148 9.14977 37.1647 9.32715C36.8896 9.41586 36.6561 9.50748 36.4743 9.59961C36.3989 9.63777 36.3387 9.67348 36.2907 9.70508C36.3328 9.7357 36.3866 9.7732 36.4567 9.81445C36.8411 10.0408 37.4339 10.2773 38.0836 10.5352C38.7045 10.7816 39.3826 11.0495 39.8493 11.3242C40.0735 11.4562 40.3201 11.6289 40.4684 11.8545C40.5488 11.9769 40.6166 12.139 40.611 12.3301C40.6052 12.5252 40.5246 12.6905 40.4176 12.8193C40.2982 12.9631 40.1366 13.0593 39.9958 13.126C39.8465 13.1966 39.6721 13.2564 39.486 13.3096C39.1136 13.416 38.6426 13.5081 38.1168 13.5918C37.0649 13.7592 35.7235 13.9046 34.3815 14.0625C33.0293 14.2216 31.6704 14.3939 30.5514 14.6162C29.9922 14.7273 29.505 14.8485 29.1149 14.9824C28.7201 15.118 28.471 15.2513 28.3415 15.3652C28.4067 15.4713 28.5803 15.6417 28.9176 15.8672C29.5954 16.3201 30.653 16.8221 31.7916 17.3643C32.9055 17.8946 34.0905 18.4607 34.943 19.0234C35.3663 19.3028 35.7481 19.6075 35.9977 19.9365C36.2521 20.2718 36.4253 20.7164 36.2282 21.1914C36.1308 21.4258 35.9539 21.6085 35.7682 21.75C35.5795 21.8938 35.3495 22.019 35.0983 22.1309C34.5962 22.3545 33.947 22.551 33.2174 22.7285C31.7547 23.0844 29.8812 23.386 28.027 23.6689C26.1615 23.9536 24.3153 24.2199 22.8688 24.5088C22.145 24.6533 21.5395 24.8005 21.0915 24.9521C20.8675 25.0279 20.6964 25.1 20.5749 25.167C20.5443 25.1839 20.5201 25.2014 20.4997 25.2148C20.5246 25.246 20.5583 25.2865 20.6071 25.334C20.8391 25.5594 21.2455 25.8395 21.8043 26.165C22.912 26.8103 24.4767 27.5533 26.0651 28.3086C27.6383 29.0567 29.2367 29.8178 30.3629 30.4873C30.9196 30.8182 31.402 31.1504 31.7086 31.4697C31.8597 31.6271 32.0086 31.8219 32.0749 32.0498C32.1509 32.3116 32.1079 32.5903 31.9176 32.8193C31.5004 33.3214 30.893 33.5368 30.3073 33.6377C29.7207 33.7387 29.0687 33.7386 28.4957 33.7402C27.8958 33.7419 27.3929 33.7467 27.0084 33.8291C26.6284 33.9106 26.5158 34.0336 26.4743 34.1582C26.4462 34.2426 26.4585 34.2792 26.4665 34.2979C26.4793 34.3278 26.5172 34.3843 26.6207 34.4561C26.8384 34.6067 27.2082 34.7317 27.6608 34.8223C28.0993 34.9099 28.5593 34.9549 28.9147 34.9775C29.0911 34.9888 29.2391 34.9943 29.3424 34.9971C29.394 34.9985 29.4346 34.9997 29.4616 35H29.4997C29.7758 35 29.9997 35.2239 29.9997 35.5C29.9997 35.7418 29.8283 35.9438 29.6002 35.9902L29.4997 36H29.4489C29.4175 35.9996 29.3719 35.9986 29.3151 35.9971C29.2017 35.994 29.0415 35.9877 28.8512 35.9756C28.4723 35.9514 27.9634 35.9025 27.4645 35.8027C26.9798 35.7058 26.4432 35.5495 26.0514 35.2783C25.8504 35.1392 25.6577 34.9493 25.5475 34.6924C25.4324 34.4239 25.4293 34.132 25.526 33.8418C25.7345 33.2166 26.2855 32.9616 26.7985 32.8516C27.3069 32.7425 27.9264 32.7418 28.4938 32.7402C29.0884 32.7386 29.6499 32.7363 30.1374 32.6523C30.5657 32.5786 30.8699 32.4511 31.07 32.2627C31.0496 32.2354 31.0247 32.2004 30.9879 32.1621C30.7805 31.9461 30.3963 31.6707 29.8512 31.3467C28.7736 30.7062 27.2242 29.966 25.6364 29.2109C24.0635 28.463 22.4528 27.7006 21.3004 27.0293C20.7294 26.6966 20.2339 26.3657 19.9098 26.0508C19.7501 25.8956 19.5958 25.7104 19.5124 25.498C19.4196 25.2617 19.4132 24.9785 19.5836 24.7227L19.6911 24.5889C19.8086 24.4644 19.9532 24.3683 20.0915 24.292C20.2845 24.1855 20.5167 24.091 20.7711 24.0049C21.2805 23.8325 21.9353 23.6755 22.6725 23.5283C24.1482 23.2336 26.0279 22.9618 27.8766 22.6797C29.7366 22.3958 31.5665 22.1007 32.9801 21.7568C33.6885 21.5845 34.2712 21.4053 34.692 21.2178C34.9022 21.1241 35.057 21.0347 35.1627 20.9541C35.2701 20.8722 35.2993 20.8205 35.3043 20.8086C35.311 20.7926 35.343 20.7272 35.2018 20.541C35.0555 20.3482 34.7861 20.1184 34.3922 19.8584C33.6101 19.3422 32.4957 18.8074 31.362 18.2676C30.2532 17.7397 29.1148 17.2014 28.362 16.6982C27.9967 16.4541 27.6471 16.1712 27.4635 15.8467C27.3651 15.6725 27.2964 15.4547 27.3327 15.2139C27.3693 14.9713 27.5009 14.7768 27.6647 14.6289C27.9452 14.3757 28.3516 14.1875 28.7897 14.0371C29.2393 13.8828 29.7757 13.7513 30.3571 13.6357C31.5197 13.4047 32.9145 13.2282 34.2643 13.0693C35.6243 12.9093 36.934 12.7677 37.9596 12.6045C38.4726 12.5229 38.8972 12.4384 39.2116 12.3486C39.3123 12.3199 39.3955 12.2892 39.4645 12.2627C39.4302 12.2395 39.39 12.2135 39.3424 12.1855C38.958 11.9592 38.3652 11.7227 37.7155 11.4648C37.0946 11.2184 36.4165 10.9505 35.9499 10.6758C35.7256 10.5438 35.479 10.3711 35.3307 10.1455C35.2503 10.0231 35.1825 9.86098 35.1881 9.66992C35.1939 9.47481 35.2745 9.30947 35.3815 9.18066L35.5182 9.03906C35.6663 8.90601 35.8443 8.79715 36.0221 8.70703C36.2672 8.58286 36.5544 8.47292 36.8581 8.375C37.4657 8.17906 38.1844 8.01836 38.8629 7.89062C39.5441 7.7624 40.1979 7.66519 40.6803 7.60059C40.9217 7.56825 41.1211 7.54369 41.2604 7.52734C41.3301 7.51917 41.385 7.51293 41.4225 7.50879C41.4412 7.50672 41.4556 7.50497 41.4655 7.50391C41.4704 7.50338 41.4746 7.50321 41.4772 7.50293H41.4811L41.5827 7.50195Z" fill="#9A5700"/>
<rect x="25" y="7" width="25" height="1" fill="#9A5700"/>
<rect x="37" y="16" width="6" height="1" rx="0.5" fill="#9A5700"/>
<rect x="44" y="11" width="5" height="1" rx="0.5" fill="#9A5700"/>
<rect x="39" y="23" width="9" height="1" rx="0.5" fill="#9A5700"/>
<rect x="35" y="29" width="4" height="1" rx="0.5" fill="#9A5700"/>
<rect x="43" y="32" width="4" height="1" rx="0.5" fill="#9A5700"/>
</svg>
